<svg id="sitted_man" xmlns="http://www.w3.org/2000/svg" viewBox="0 0 500 500">
  <path d="M459,191.15V338.06l-81.74,81.76H261.67l-59-59-2.93-2.92H136.66l-2.93,2.93L78.86,415.67l-37.8-37.8H75.85l2.93-2.93L195.59,258.12l91.15,91.15,7.07,7.07,7.07-7.07L459,191.15M469,167,293.81,342.2,195.59,244,71.71,367.86H16.92l61.94,61.94,61.94-61.94h54.79l61.94,61.94H381.41L469,342.2V167Z" />
  <path d="M466.59,72.84l7.68,53.25-3.35-2.45L465,131.56l-46.51,62.1-54.11-40.52L410.89,91l6-8-3.38-2.56,53.11-7.67m8.47-11.32L388.36,74l14.53,11-52.52,70.11,70.11,52.51L473,137.55l14.57,10.67-12.51-86.7Z" />
</svg>
