<svg xmlns="http://www.w3.org/2000/svg" viewBox="0 0 127.19 127.19">
  <polygon points="1.5 125.69 1.5 67.22 59.97 125.69 1.5 125.69"/>
  <path class="stroke" d="M3,70.84l53.35,53.35H3V70.84M0,63.59v63.6H63.59L0,63.59Z"/>

  <polygon points="3.62 1.5 123.57 1.5 63.59 61.47 3.62 1.5"/>
  <path class="stroke" d="M120,3,63.59,59.35,7.24,3H120m7.24-3H0L63.59,63.59,127.19,0Z"/>

  <polygon points="67.22 125.69 95.39 97.51 123.57 125.69 67.22 125.69"/>
  <path class="stroke" d="M95.39,99.63,120,124.19H70.84L95.39,99.63m0-4.24-31.8,31.8h63.6l-31.8-31.8Z"/>


  <polygon points="1.5 62.97 1.5 3.62 30.3 32.42 30.3 91.77 1.5 62.97"/>
  <path class="stroke" d="M3,7.24,28.8,33V88.15L3,62.35V7.24M0,0V63.59l31.8,31.8V31.8L0,0Z"/>

  <polygon points="33.3 35.42 61.47 63.59 33.3 91.77 33.3 35.42"/>
  <path class="stroke" d="M34.8,39,59.35,63.59,34.8,88.15V39m-3-7.24V95.39l31.79-31.8L31.8,31.8Z"/>

  <rect x="42.61" y="74.41" width="41.97" height="41.97" transform="translate(-48.83 72.91) rotate(-45)"/>
  <path class="stroke" d="M63.59,67.84,91.15,95.39,63.59,123,36,95.39,63.59,67.84m0-4.25L31.8,95.39l31.79,31.8,31.8-31.8-31.8-31.8Z"/>

  <polygon points="65.72 63.59 125.69 3.62 125.69 123.57 65.72 63.59"/>
  <path class="stroke" d="M124.19,7.24V120L67.84,63.59,124.19,7.24m3-7.24L63.59,63.59l63.6,63.6V0Z"/>
</svg>