<svg xmlns="http://www.w3.org/2000/svg" width="500" height="500" viewBox="0 0 500 500">
  <path d="M227.56,27,321.5,81.23,296.11,88l-4,1.07L290,92.69l-30.65,53.09-53.1-30.65-3.58-2.07-4,1.07-25.38,6.8L227.56,27M211.29,151.91,329.76,270.38l-64.24,64.23-2.93,2.93V403h-51.3V317.55l-17.08,17.06-12.47,12.47v-66.7h29.55V151.91M227.22,439.5l37.17,37.17H227.22V439.5M223.9,13.33,152.59,136.84l48.7-13,61.76,35.65L298.7,97.69l48.71-13L223.9,13.33ZM201.29,127.76V270.38H171.74V371.22l29.55-29.54V413h71.3V341.68l71.31-71.3L201.29,127.76Zm15.93,287.6v71.31h71.31l-71.31-71.31Z" />
</svg>
