<svg id="HELP" xmlns="http://www.w3.org/2000/svg" viewBox="0 0 300 300">
  <path d="M277.78,252.19,150.05,124.36,22.22,252.1Z" style="fill: none;stroke: #6b7b7c;stroke-miterlimit: 10;stroke-width: 8px"/>
  <path data-name="polygon_filled" d="M218.82,229.66,150,160.82,81.18,229.61Z" style="fill: #6b7b7c"/>
  <path d="M196.9,241.59h-2.22v6.51a3.25,3.25,0,0,1-6.5,0v-8.76c-.33-.44-.78-1.06-1.31-1.68a10.06,10.06,0,0,0-3.16-2.8,12.68,12.68,0,0,0-4.6-.26l-.69.07v10.17a3.25,3.25,0,1,1-6.5,0V231.75a2.21,2.21,0,0,0-1-2,10.71,10.71,0,0,0-2.92-1.18,27.17,27.17,0,0,0-5.3-.18l-.56,0v16.46a3.25,3.25,0,1,1-6.5,0V204.21a4.88,4.88,0,0,0-9.76,0V254.6a3.25,3.25,0,0,1-5.55,2.29l-15.67-15.67a3.36,3.36,0,0,0-5.26,4.11l16.33,27.21,8,16a3.27,3.27,0,0,0,2.91,1.8h41a3.27,3.27,0,0,0,2.83-1.64l9.07-15.88a16.29,16.29,0,0,0,2.06-6.44l1.76-17.65c0-.22,0-.44,0-.65A6.5,6.5,0,0,0,196.9,241.59Z" style="fill: #fff"/>
  <path d="M198.19,235.16a11.15,11.15,0,0,0-1.29-.07h-3.78c-.4-.55-.83-1.09-1.27-1.61a16,16,0,0,0-5.72-4.66c-2.36-.94-5.5-.85-7.53-.7l-.85.08a8.21,8.21,0,0,0-3.64-4.17,17.07,17.07,0,0,0-4.8-1.88,33.27,33.27,0,0,0-6.83-.3l-.31,0V204.21a11.38,11.38,0,0,0-22.76,0v42.54l-10.12-10.12a9.86,9.86,0,0,0-15.43,12l16.2,27,7.9,15.8a9.76,9.76,0,0,0,8.72,5.39h41a9.76,9.76,0,0,0,8.47-4.92l9.07-15.87a22.7,22.7,0,0,0,2.89-9l1.76-17.65A13,13,0,0,0,198.19,235.16Zm5.18,13.59-1.76,17.65a16.29,16.29,0,0,1-2.06,6.44l-9.07,15.88a3.27,3.27,0,0,1-2.83,1.64h-41a3.27,3.27,0,0,1-2.91-1.8l-8-16-16.33-27.21a3.36,3.36,0,0,1,5.26-4.11l15.67,15.67a3.25,3.25,0,0,0,5.55-2.29V204.21a4.88,4.88,0,0,1,9.76,0v40.63a3.25,3.25,0,1,0,6.5,0V228.38l.56,0a27.17,27.17,0,0,1,5.3.18,10.71,10.71,0,0,1,2.92,1.18,2.21,2.21,0,0,1,1,2v13.09a3.25,3.25,0,1,0,6.5,0V234.67l.69-.07a12.68,12.68,0,0,1,4.6.26,10.06,10.06,0,0,1,3.16,2.8c.53.62,1,1.24,1.31,1.68v8.76a3.25,3.25,0,0,0,6.5,0v-6.51h2.22a6.5,6.5,0,0,1,6.5,6.51C203.4,248.31,203.39,248.53,203.37,248.75Z"/>
  <line x1="150" y1="13.59" x2="150" y2="92.94" style="fill: none;stroke: #2c464b;stroke-linecap: round;stroke-miterlimit: 10;stroke-width: 4px"/>
  <polygon points="139.24 80.75 150 88.42 160.76 80.75 150 100.67 139.24 80.75" style="fill: #2c464b"/>
</svg>
