<svg xmlns="http://www.w3.org/2000/svg" viewBox="0 0 300 300">
  <path d="M241.47,231.19,218.2,52,39,75.24Z" style="fill: none;stroke: #6b7b7c;stroke-miterlimit: 10;stroke-width: 8px"/>
  <path data-name="polygon_filled" d="M208.48,177.38,196,80.86,99.43,93.39Z" style="fill: #6b7b7c"/>
  <path d="M271,238.3h-2.23v6.51a3.25,3.25,0,0,1-6.5,0v-8.76c-.32-.44-.77-1.06-1.3-1.68a10.17,10.17,0,0,0-3.16-2.8,12.72,12.72,0,0,0-4.6-.26l-.69.07v10.18a3.25,3.25,0,0,1-6.5,0v-13.1a2.22,2.22,0,0,0-1-2,10.53,10.53,0,0,0-2.91-1.18,27.32,27.32,0,0,0-5.31-.18l-.56,0v16.47a3.25,3.25,0,0,1-6.5,0V200.92a4.88,4.88,0,1,0-9.75,0v50.39a3.25,3.25,0,0,1-5.55,2.29l-15.67-15.67a3.36,3.36,0,0,0-5.26,4.11l16.33,27.21,8,16a3.26,3.26,0,0,0,2.91,1.8h41a3.25,3.25,0,0,0,2.82-1.64l9.07-15.88a16.13,16.13,0,0,0,2.06-6.44l1.77-17.65c0-.22,0-.44,0-.65A6.5,6.5,0,0,0,271,238.3Z" style="fill: #fff"/>
  <path d="M272.29,231.87a11.15,11.15,0,0,0-1.29-.07h-3.78c-.41-.55-.83-1.09-1.27-1.61a16.14,16.14,0,0,0-5.72-4.66c-2.37-.94-5.5-.85-7.53-.7l-.86.08a8.16,8.16,0,0,0-3.64-4.17,16.84,16.84,0,0,0-4.8-1.88,32.45,32.45,0,0,0-6.82-.29h-.32V200.92a11.38,11.38,0,1,0-22.75,0v42.54l-10.13-10.12a9.86,9.86,0,0,0-15.42,12l16.19,27,7.9,15.8a9.76,9.76,0,0,0,8.73,5.39h41a9.76,9.76,0,0,0,8.47-4.92l9.07-15.87a22.85,22.85,0,0,0,2.88-9l1.76-17.65A13,13,0,0,0,272.29,231.87Zm5.18,13.59-1.77,17.65a16.13,16.13,0,0,1-2.06,6.44l-9.07,15.88a3.25,3.25,0,0,1-2.82,1.64h-41a3.26,3.26,0,0,1-2.91-1.8l-8-16L193.53,242a3.36,3.36,0,0,1,5.26-4.11l15.67,15.67a3.25,3.25,0,0,0,5.55-2.29V200.92a4.88,4.88,0,1,1,9.75,0v40.64a3.25,3.25,0,0,0,6.5,0V225.09l.56,0a27.32,27.32,0,0,1,5.31.18,10.53,10.53,0,0,1,2.91,1.18,2.22,2.22,0,0,1,1,2v13.1a3.25,3.25,0,0,0,6.5,0V231.38l.69-.07a12.72,12.72,0,0,1,4.6.26,10.17,10.17,0,0,1,3.16,2.8c.53.62,1,1.24,1.3,1.68v8.76a3.25,3.25,0,0,0,6.5,0V238.3H271a6.5,6.5,0,0,1,6.5,6.51C277.5,245,277.49,245.24,277.47,245.46Z"/>
  <polygon points="254.01 50.65 265.65 56.92 275.38 47.98 267.17 69.08 254.01 50.65" style="fill: #2c464b"/>
  <path d="M202,9.53c29.35-5.44,57.76,15.28,63.51,46.32" style="fill: none;stroke: #2c464b;stroke-linecap: round;stroke-miterlimit: 10;stroke-width: 4px"/>
</svg>
