<svg xmlns="http://www.w3.org/2000/svg" viewBox="0 0 300 300">
  <path id="polygon_filled" d="M277.78,201.19,150.05,73.36,22.22,201.1Z" style="fill: none;stroke: #6b7b7c;stroke-miterlimit: 10;stroke-width: 8px"/>
  <path id="polygon_filled-2" data-name="polygon_filled" d="M218.82,178.66,150,109.82,81.18,178.61Z" style="fill: #6b7b7c"/>
  <path d="M197.48,190.33h-2.22v6.51a3.26,3.26,0,0,1-6.51,0v-8.76c-.32-.44-.77-1.05-1.3-1.68a10,10,0,0,0-3.16-2.79,12.26,12.26,0,0,0-4.6-.26l-.69.06v10.18a3.25,3.25,0,1,1-6.5,0v-13.1a2.23,2.23,0,0,0-1-2,10.53,10.53,0,0,0-2.91-1.18,27.17,27.17,0,0,0-5.3-.18l-.56,0v16.47a3.26,3.26,0,0,1-6.51,0V153a4.88,4.88,0,1,0-9.75,0v50.39a3.25,3.25,0,0,1-5.55,2.29L125.27,190a3.36,3.36,0,0,0-5.26,4.11l16.33,27.21,8,16a3.26,3.26,0,0,0,2.91,1.8h41a3.27,3.27,0,0,0,2.83-1.64l9.07-15.88a16.29,16.29,0,0,0,2.06-6.44L204,197.49c0-.22,0-.44,0-.65A6.51,6.51,0,0,0,197.48,190.33Z" style="fill: #fff"/>
  <path d="M198.78,184.19a11.2,11.2,0,0,0-1.3-.07h-3.77c-.41-.55-.83-1.09-1.27-1.61a16.14,16.14,0,0,0-5.72-4.66c-2.37-.95-5.5-.85-7.53-.7l-.86.08a8.16,8.16,0,0,0-3.64-4.17,17,17,0,0,0-4.8-1.88,33.21,33.21,0,0,0-6.83-.3l-.31,0V153.24a11.38,11.38,0,1,0-22.75,0v42.54l-10.13-10.12a9.86,9.86,0,0,0-15.43,12l16.2,27,7.9,15.8a9.76,9.76,0,0,0,8.73,5.39h41A9.74,9.74,0,0,0,196.7,241l9.07-15.87a22.7,22.7,0,0,0,2.89-9l1.76-17.65A13,13,0,0,0,198.78,184.19ZM204,197.78l-1.76,17.65a16.29,16.29,0,0,1-2.06,6.44l-9.07,15.88a3.25,3.25,0,0,1-2.82,1.64h-41a3.26,3.26,0,0,1-2.91-1.8l-8-16L120,194.36a3.36,3.36,0,0,1,5.26-4.11L141,205.92a3.25,3.25,0,0,0,5.55-2.29V153.24a4.88,4.88,0,1,1,9.75,0v40.63a3.25,3.25,0,1,0,6.5,0V177.41l.56,0a28.28,28.28,0,0,1,5.31.17,10.9,10.9,0,0,1,2.91,1.19,2.22,2.22,0,0,1,1,2v13.09a3.25,3.25,0,1,0,6.5,0V183.7l.69-.07a12.72,12.72,0,0,1,4.6.26,10.17,10.17,0,0,1,3.16,2.8c.53.62,1,1.24,1.3,1.68v8.76a3.25,3.25,0,0,0,6.5,0v-6.51h2.22a6.5,6.5,0,0,1,6.51,6.51A4.82,4.82,0,0,1,204,197.78Z"/>
</svg>
